<svg xmlns="http://www.w3.org/2000/svg" width="500" height="500" aria-hidden="true" data-bbox="98.453 98.453 178.094 178.094" data-type="color" viewBox="98.453 98.453 178.094 178.094"><defs><clipPath id="a"><path d="M98.453 98.453h178.094v178.094H98.453Zm0 0"/></clipPath><clipPath id="b"><path d="M134.566 139.273H241V246H134.566Zm0 0"/></clipPath></defs><g clip-path="url(#a)"><path fill="#0097b2" d="M98.453 98.453h178.094v178.094H98.453Zm0 0" data-color="1"/></g><g clip-path="url(#b)"><path fill="#fff" d="M155.883 185.113a88.53 88.53 0 0 0 38.754 38.723l12.937-12.965a5.91 5.91 0 0 1 5.969-1.441 67 67 0 0 0 20.996 3.351 5.86 5.86 0 0 1 5.879 5.883v20.582a5.86 5.86 0 0 1-5.879 5.879c-55.223 0-99.973-44.75-99.973-99.969a5.88 5.88 0 0 1 5.88-5.883h20.581a5.86 5.86 0 0 1 5.883 5.883c0 7.32 1.176 14.406 3.352 20.992a5.9 5.9 0 0 1-1.442 5.97Zm0 0" data-color="2"/></g></svg>