<svg xmlns="http://www.w3.org/2000/svg" width="500" height="500" aria-hidden="true" data-bbox="88.02 88.02 198.96 198.96" data-type="color" viewBox="88.02 88.02 198.96 198.96"><defs><clipPath id="a"><path d="M88.02 88.02h198.96v198.96H88.02Zm0 0"/></clipPath><clipPath id="b"><path d="M119.031 134.84H255.04V187H119.031Zm0 0"/></clipPath><clipPath id="c"><path d="M119.031 157H255.04v82.465H119.031Zm0 0"/></clipPath></defs><g clip-path="url(#a)"><path fill="#0097b2" d="M88.02 88.02h198.96v198.96H88.02Zm0 0" data-color="1"/></g><g clip-path="url(#b)"><path fill="#fff" d="m187.492 186.621 68.453-41.07v-.18q-.002-1.036-.203-2.055a10.7 10.7 0 0 0-.601-1.976 10.5 10.5 0 0 0-2.281-3.414 10.5 10.5 0 0 0-7.445-3.086h-115.84c-.692 0-1.38.066-2.055.203q-1.02.205-1.977.598-.96.397-1.82.976-.861.575-1.598 1.309a10.5 10.5 0 0 0-2.281 3.414q-.399.961-.598 1.976-.204 1.02-.203 2.055v.18Zm0 0" data-color="2"/></g><g clip-path="url(#c)"><path fill="#fff" d="M190.203 197.273a5 5 0 0 1-1.305.559 5.2 5.2 0 0 1-2.812 0 5.1 5.1 0 0 1-1.305-.559l-65.738-39.445v71.793q-.001 1.037.203 2.05.2 1.02.598 1.977a10.6 10.6 0 0 0 2.281 3.418q.737.734 1.598 1.309a10.6 10.6 0 0 0 3.797 1.574c.675.133 1.363.2 2.054.2h115.84q1.036 0 2.055-.2a10.6 10.6 0 0 0 1.972-.601 10.45 10.45 0 0 0 4.727-3.879q.58-.86.973-1.82a10.5 10.5 0 0 0 .804-4.028v-71.793Zm0 0" data-color="2"/></g></svg>