<svg xmlns="http://www.w3.org/2000/svg" width="500" height="500" aria-hidden="true" data-bbox="88.93 88.93 197.14 197.14" data-type="color" viewBox="88.93 88.93 197.14 197.14"><defs><clipPath id="a"><path d="M88.93 88.93h197.14v197.14H88.93Zm0 0"/></clipPath><clipPath id="b"><path d="M139.945 116.55h99.516v140.985h-99.516Zm0 0"/></clipPath></defs><g clip-path="url(#a)"><path fill="#0097b2" d="M88.93 88.93h197.14v197.14H88.93Zm0 0" data-color="1"/></g><g clip-path="url(#b)"><path fill="#fff" d="M189.605 116.55c-27.417 0-49.66 22.243-49.66 49.665 0 37.246 49.66 92.226 49.66 92.226s49.665-54.98 49.665-92.226c0-27.422-22.243-49.664-49.665-49.664m0 67.4c-9.789 0-17.734-7.946-17.734-17.735 0-9.793 7.945-17.738 17.734-17.738s17.739 7.945 17.739 17.738c0 9.789-7.95 17.734-17.739 17.734m0 0" data-color="2"/></g></svg>