<svg xmlns="http://www.w3.org/2000/svg" width="500" height="500" aria-hidden="true" data-bbox="80.254 80.254 214.492 214.492" data-type="color" viewBox="80.254 80.254 214.492 214.492"><defs><clipPath id="a"><path d="M80.254 80.254h214.492v214.492H80.254Zm0 0"/></clipPath><clipPath id="b"><path d="M114 111.363h152V263H114Zm0 0"/></clipPath></defs><g clip-path="url(#a)"><path fill="#0097b2" d="M80.254 80.254h214.492v214.492H80.254Zm0 0" data-color="1"/></g><g clip-path="url(#b)"><path fill="#fff" d="M189.79 111.363a76 76 0 0 0-12.61 1.051q-3.122.528-6.192 1.316a76 76 0 0 0-6.062 1.825 76 76 0 0 0-5.887 2.332 73 73 0 0 0-5.672 2.812 75 75 0 0 0-5.418 3.278 76 76 0 0 0-5.125 3.718 75.5 75.5 0 0 0-13.258 13.54 75 75 0 0 0-3.613 5.199 77 77 0 0 0-3.168 5.484 76 76 0 0 0-4.902 11.664 75 75 0 0 0-1.7 6.098 75 75 0 0 0-1.183 6.218 76 76 0 0 0-.793 12.629 76 76 0 0 0 2.777 18.746 75.7 75.7 0 0 0 10.754 22.809 75 75 0 0 0 3.832 5.04 77 77 0 0 0 4.239 4.702 76.4 76.4 0 0 0 9.586 8.258 75 75 0 0 0 5.277 3.496 76 76 0 0 0 5.55 3.047q.335.171.68.3a75 75 0 0 0 7.84 3.31c2.68.952 5.399 1.75 8.168 2.394a75 75 0 0 0 8.383 1.45q4.236.482 8.496.483c2.84 0 5.672-.164 8.496-.484a75 75 0 0 0 8.383-1.45 75 75 0 0 0 8.168-2.394 75 75 0 0 0 7.84-3.308q.345-.13.68-.301a75 75 0 0 0 5.55-3.047 75 75 0 0 0 10.242-7.426 75.53 75.53 0 0 0 25.82-49.305q.334-3.15.403-6.32.065-3.168-.129-6.332a75 75 0 0 0-1.848-12.516 75 75 0 0 0-3.906-12.03 77 77 0 0 0-2.695-5.731 78 78 0 0 0-3.164-5.484 75.4 75.4 0 0 0-7.652-10.078 75.6 75.6 0 0 0-9.223-8.66 76 76 0 0 0-10.54-6.997 74 74 0 0 0-5.671-2.812 76 76 0 0 0-5.89-2.332 76 76 0 0 0-6.063-1.825 74 74 0 0 0-6.192-1.316 77 77 0 0 0-6.28-.789 76 76 0 0 0-6.329-.262m0 30.242q1.113 0 2.222.11a22 22 0 0 1 4.36.867q1.066.323 2.097.75 1.029.422 2.011.95a22.4 22.4 0 0 1 3.696 2.468q.861.71 1.652 1.496a23 23 0 0 1 2.82 3.438q.616.926 1.145 1.91a23 23 0 0 1 1.7 4.105q.322 1.066.538 2.16c.149.727.254 1.461.328 2.2.075.742.11 1.48.11 2.226a22.3 22.3 0 0 1-.438 4.422q-.216 1.095-.539 2.16-.323 1.067-.75 2.094-.427 1.032-.949 2.012a22.8 22.8 0 0 1-5.617 6.844 22.4 22.4 0 0 1-3.695 2.469 23 23 0 0 1-2.012.952 23.5 23.5 0 0 1-4.254 1.29q-1.095.216-2.203.327a23.5 23.5 0 0 1-4.446 0 23 23 0 0 1-2.203-.328 23.5 23.5 0 0 1-4.254-1.29 23 23 0 0 1-3.921-2.096 24 24 0 0 1-1.786-1.325 23 23 0 0 1-3.144-3.144 22 22 0 0 1-1.324-1.79 22 22 0 0 1-1.145-1.91 22 22 0 0 1-.953-2.011 22 22 0 0 1-.75-2.094q-.322-1.065-.54-2.16a22.3 22.3 0 0 1-.437-4.422q.006-1.114.118-2.222a22 22 0 0 1 .332-2.2 22.3 22.3 0 0 1 1.297-4.25 23 23 0 0 1 .953-2.008q.522-.98 1.144-1.906a24 24 0 0 1 1.324-1.785 22.8 22.8 0 0 1 4.926-4.469q.926-.616 1.91-1.144a23 23 0 0 1 4.102-1.707 22 22 0 0 1 2.156-.543 22 22 0 0 1 2.2-.332 22 22 0 0 1 2.218-.114m22.679 101.375c-1.739.68-3.555 1.364-5.367 1.891a57 57 0 0 1-5.141 1.36c-.152 0-.3.078-.453.078-1.817.379-3.703.605-5.52.832h-.226c-3.98.402-7.965.402-11.946 0h-.226c-1.813-.227-3.703-.453-5.52-.832-.148 0-.3-.079-.453-.079a57 57 0 0 1-5.14-1.359c-1.813-.527-3.63-1.21-5.368-1.89a58 58 0 0 1-15.117-8.844v-1.817a38 38 0 0 1 .723-7.37q.363-1.823.902-3.602.541-1.776 1.25-3.493a38 38 0 0 1 3.492-6.535 38.1 38.1 0 0 1 7.45-8.218 38.1 38.1 0 0 1 9.515-5.704 38 38 0 0 1 3.492-1.25 38 38 0 0 1 3.598-.898 37.5 37.5 0 0 1 7.375-.727q1.857 0 3.707.18 1.845.183 3.668.547 1.822.362 3.598.898 1.775.541 3.492 1.25a39 39 0 0 1 3.355 1.586 38.5 38.5 0 0 1 6.16 4.118 38 38 0 0 1 2.747 2.492 38 38 0 0 1 4.703 5.727 38 38 0 0 1 3.492 6.535q.71 1.716 1.25 3.492.54 1.78.902 3.601a37 37 0 0 1 .543 3.668 38 38 0 0 1 .184 3.703v1.817a58 58 0 0 1-15.121 8.843m0 0" data-color="2"/></g></svg>